<?xml version="1.0" encoding="iso-8859-1"?>
<!-- Generator: Adobe Illustrator 18.1.1, SVG Export Plug-In . SVG Version: 6.00 Build 0)  -->
<svg version="1.1" id="Capa_1" xmlns="http://www.w3.org/2000/svg" xmlns:xlink="http://www.w3.org/1999/xlink" x="0px" y="0px"
	 viewBox="0 0 27.809 27.809" style="enable-background:new 0 0 27.809 27.809;" xml:space="preserve">
<g>
	<g>
		<path style="fill:#010002;" d="M16.046,11.513c-0.555-0.557-0.989-0.791-1.022-0.811c-2.405-1.338-5.869-0.606-8.239,1.743
			l-2.583,2.582c-0.727,0.728-1.225,0.733-2.216,0.746c-0.407,0.006-0.872,0.012-1.42,0.074c-0.244,0.028-0.451,0.193-0.53,0.424
			c-0.081,0.233-0.023,0.492,0.15,0.665l4.827,4.826l-0.54,0.539c-0.406-0.067-0.83,0.066-1.129,0.366
			c-0.5,0.499-0.521,1.292-0.042,1.768c0.476,0.476,1.268,0.458,1.767-0.041c0.3-0.301,0.437-0.725,0.367-1.129l0.537-0.542
			l4.898,4.896c0.175,0.176,0.431,0.234,0.664,0.152c0.23-0.081,0.397-0.286,0.424-0.531c0.07-0.586,0.064-1.064,0.061-1.485
			c-0.009-0.929-0.012-1.351,0.687-2.05l2.673-2.671c2.098-2.116,3.395-5.733,1.681-8.25C16.757,12.31,16.418,11.883,16.046,11.513z
			 M5.084,23.163l0.021,0.089c0.081,0.322-0.021,0.675-0.265,0.916c-0.373,0.373-0.962,0.394-1.313,0.041
			c-0.352-0.351-0.332-0.94,0.043-1.315c0.242-0.241,0.593-0.343,0.915-0.26l0.089,0.021l0.665-0.665l0.509,0.509L5.084,23.163z
			 M10.738,25.68l-8.627-8.628c0.773-0.012,1.472-0.039,2.219-0.496c1.019,0.288,4.979,1.73,6.89,6.958
			C10.746,24.258,10.733,24.933,10.738,25.68z M14.47,20.131l-2.299,2.299c-1.842-4.43-5.024-6.197-6.714-6.846l2.229-2.231
			c1.974-1.956,4.797-2.599,6.723-1.525c0.003,0.002,0.317,0.174,0.732,0.591c0.304,0.303,0.585,0.657,0.848,1.069
			C17.281,15.386,16.231,18.357,14.47,20.131z"/>
		<path style="fill:#010002;" d="M27.459,0.351c-0.605-0.604-1.782-0.407-2.628,0.439l-7.269,8.173
			C17.358,9.166,17.166,9.364,17,9.553c-1.312-0.608-2.533,0.392-2.533,0.392s2.204,1.191,3.395,3.396c0,0,1.002-1.221,0.393-2.533
			c0.19-0.167,0.387-0.36,0.592-0.562l8.175-7.268C27.865,2.129,28.063,0.953,27.459,0.351z"/>
	</g>
</g>
<g>
</g>
<g>
</g>
<g>
</g>
<g>
</g>
<g>
</g>
<g>
</g>
<g>
</g>
<g>
</g>
<g>
</g>
<g>
</g>
<g>
</g>
<g>
</g>
<g>
</g>
<g>
</g>
<g>
</g>
</svg>
