<svg xmlns="http://www.w3.org/2000/svg" xmlns:xlink="http://www.w3.org/1999/xlink" version="1.1" id="Layer_1" x="0px" y="0px" viewBox="0 0 512 512" style="enable-background:new 0 0 512 512;" xml:space="preserve" width="100%" height="100%"  preserveAspectRatio="xMinYMin meet"><rect id="svgEditorBackground" x="0" y="0" width="512" height="512" style="fill:none;stroke:none;"/><defs id="svgEditorDefs"><linearGradient gradientUnits="objectBoundingBox" id="lgrd2-peachpuff-sienna-v" spreadMethod="pad" x1="0%" x2="0%" y1="0%" y2="100%"><stop offset="0%" style="stop-color:peachpuff;  stop-opacity:0.84;"/><stop offset="100%" style="stop-color:sienna;  stop-opacity:1"/></linearGradient><linearGradient gradientUnits="objectBoundingBox" id="lgrd2-peachpuff-sienna-h" spreadMethod="pad" x1="0%" x2="100%" y1="0%" y2="0%"><stop offset="0%" style="stop-color:peachpuff;  stop-opacity:1;"/><stop offset="100%" style="stop-color:sienna;  stop-opacity:1"/></linearGradient></defs>
<g>
	<g>
		<path d="M490.667,448H480V10.667C480,4.8,475.2,0,469.333,0H42.667C36.8,0,32,4.8,32,10.667V448H21.333c-5.867,0,-10.667,4.8,-10.667,10.667v42.667c0,5.867,4.8,10.667,10.667,10.667h469.333c5.867,0,10.667,-4.8,10.667,-10.667v-42.667C501.333,452.8,496.533,448,490.667,448ZM53.333,21.333h405.333V448h-21.333V53.333c0,-5.867,-4.8,-10.667,-10.667,-10.667H85.333c-5.867,0,-10.667,4.8,-10.667,10.667V448H53.333V21.333ZM416,266.667V448H96V266.667H416ZM96,245.333V64h149.333v181.333H96ZM266.667,245.333V64H416v181.333H266.667ZM480,490.667H32v-21.333h448V490.667Z" style="fill:#A66515;"/>
	</g>
</g>
<g>
</g>
<g>
</g>
<g>
</g>
<g>
</g>
<g>
</g>
<g>
</g>
<g>
</g>
<g>
</g>
<g>
</g>
<g>
</g>
<g>
</g>
<g>
</g>
<g>
</g>
<g>
</g>
<g>
</g>
</svg>